PathFileType	4	(X/Y/Z)	C:/Users/beibeiliu/ov580/test_trc/capture2\sequence.19_training_dense_right.trc
DataRate	CameraRate	NumFrames	NumMarkers	Units	OrigDataRate	OrigDataStartFrame	OrigNumFrames
120	120	20	19	mm	120	308	351
Frame#	Time	ThumbCMC			ThumbMCP			ThumbIP			ThumbTip			IndexMCP			IndexPIP			IndexTip			MiddleMCP			MiddlePIP			MiddleTip			RingMCP			RingPIP			RingTip			PinkyMCP			PinkyPIP			PinkyTip			BackHand1			BackHand2			BackHand3	
		X0	Y0	Z0	X1	Y1	Z1	X2	Y2	Z2	X3	Y3	Z3	X4	Y4	Z4	X5	Y5	Z5	X6	Y6	Z6	X7	Y7	Z7	X8	Y8	Z8	X9	Y9	Z9	X10	Y10	Z10	X11	Y11	Z11	X12	Y12	Z12	X13	Y13	Z13	X14	Y14	Z14	X15	Y15	Z15	X16	Y16	Z16	X17	Y17	Z17	X18	Y18	Z18	
307	2.55833	84.6827	65.3867	3.23896	67.9702	49.7266	-16.8449	58.4082	39.4618	-38.9783	58.6798	20.006	-61.9089	133.281	48.1598	-56.0593	134.087	37.9658	-84.5199	131.656	17.5143	-99.6244	149.749	32.6365	-51.5258	148.501	9.15172	-74.6761	130.242	-16.1059	-80.8328	159.682	18.0648	-35.4019	154.908	-0.923821	-58.3405	130.089	-23.7539	-63.516	162.356	4.11262	-14.0657	160.124	-17.1408	-35.029	136.634	-30.6909	-48.0503	147.207	41.8897	7.56259	138.029	54.8581	30.3768	124.825	68.5171	2.79033	
308	2.56667	88.0133	62.9159	2.15843	68.0702	51.7078	-16.0485	58.8667	39.3967	-39.7029	60.823	19.9459	-59.6884	133.676	44.2392	-53.7473	139.084	29.3009	-81.2563	136.406	11.8589	-96.4864	152.094	23.917	-49.6185	151.283	4.16847	-69.6585	128.576	-22.3152	-78.2434	159.573	11.5976	-35.8616	156.191	-9.91312	-54.572	130.348	-25.7972	-63.2375	156.64	1.84145	-13.231	158.214	-22.4366	-31.9586	131.077	-37.5912	-45.9781	147.03	37.7752	7.74668	140.792	50.1231	31.7938	124.756	63.9674	2.56361	
309	2.575	89.7456	61.8276	1.88818	70.1088	49.8645	-23.4912	60.4727	37.7014	-46.918	63.0471	19.2701	-59.8669	134.27	42.0174	-56.8288	141.305	27.5459	-78.666	137.038	5.43995	-97.0039	151.524	20.1894	-45.0682	149.801	-5.30184	-70.299	127.698	-27.9296	-76.4802	157.979	5.84742	-36.1928	155.019	-16.5222	-53.9556	126.395	-34.4538	-61.1279	157.563	-7.83343	-11.7797	156.364	-28.0341	-29.3093	130.751	-42.5319	-43.1511	146.178	36.2219	10.9249	141.383	45.5788	36.1963	129.855	59.6414	2.78023	
310	2.58333	91.1859	60.8596	-1.66283	74.5775	47.7938	-21.0918	61.8617	40.0717	-44.9095	64.9537	18.4922	-61.2732	138.759	35.395	-55.5891	144.479	22.2302	-76.6922	140.955	-0.37717	-93.4785	152.17	13.0851	-45.1189	151.682	-10.0538	-66.2899	126.077	-31.5116	-78.2458	157.926	-1.01155	-28.7079	150.659	-21.6187	-54.1999	123.187	-36.3468	-60.4859	157.663	-14.8989	-9.72861	150.117	-34.1195	-30.7623	123.408	-46.458	-40.898	148.601	30.128	9.44742	139.893	41.7445	35.5081	130.725	54.8611	2.86576	
311	2.59167	96.4332	57.7252	-1.11963	75.7941	50.2208	-20.732	67.967	38.4444	-43.2519	64.7619	19.0374	-62.0155	142.856	28.645	-52.126	147.554	15.5668	-75.2715	141.454	-8.60098	-97.3455	153.928	7.01164	-46.4713	152.382	-16.9865	-65.5876	127.912	-37.7027	-75.3007	155.993	-6.31072	-29.9296	149.747	-31.0188	-51.694	119.872	-42.7486	-57.7586	154.267	-20.2096	-5.26236	149.393	-43.9168	-24.8651	121.686	-48.2492	-39.505	148.069	22.7224	12.107	142.707	35.4601	36.394	133.462	50.1837	5.40662	
312	2.6	98.5038	56.8081	-1.52859	79.4218	48.1246	-23.5654	68.307	37.0252	-48.6135	68.3277	14.1494	-63.1689	145.081	24.3438	-54.4042	151.085	6.91462	-76.3627	146.705	-12.6842	-92.296	155.667	1.51502	-44.4074	152.419	-22.5919	-66.1593	127.02	-42.7056	-73.8782	158.755	-15.9019	-29.9401	149.457	-36.1285	-48.4658	117.643	-47.4367	-56.2876	154.768	-25.4004	-8.85891	145.909	-46.0919	-26.2716	114.784	-54.3613	-35.0862	152.897	16.5485	15.4512	143.514	33.2126	33.2761	137.805	48.5092	1.97861	
313	2.60833	103.003	52.5186	-4.15771	80.2653	48.181	-25.4796	70.7728	36.2538	-49.0029	67.5727	14.8916	-65.9329	147.731	17.3681	-49.2633	152.082	3.86366	-76.7675	148.611	-17.7727	-92.1131	158.84	-7.27883	-40.4135	152.986	-29.3148	-62.2193	126.481	-47.3651	-73.0922	158.301	-20.264	-23.3991	150.065	-42.5587	-45.4743	119.577	-52.2462	-53.4643	153.675	-31.278	-6.23179	143.196	-50.6362	-26.1213	114.584	-58.3566	-32.653	151.755	12.0633	12.0151	145.115	28.6876	40.9109	139.975	42.6781	5.43764	
314	2.61667	103.25	56.1156	-2.76761	83.8665	46.1536	-23.1192	75.315	30.5399	-49.6905	71.1587	12.1514	-64.8464	150.698	14.4922	-51.1479	155.039	1.04563	-73.0086	149.759	-22.7825	-89.2419	158.236	-9.17851	-39.8432	151.384	-33.5222	-63.3208	127.365	-52.142	-68.3438	157.378	-24.3543	-24.191	148.44	-43.2936	-44.9141	116.109	-52.1728	-53.9876	149.892	-30.9968	-4.54767	141.177	-53.0052	-23.2536	112.849	-55.5457	-35.0678	152.574	6.36688	15.7589	143.755	27.1692	36.4096	140.321	41.604	5.10336	
315	2.625	106.902	52.9457	-0.367457	86.2007	45.5942	-23.3471	77.2333	32.1468	-47.4032	70.9729	14.4	-66.0827	151.531	10.4517	-47.0027	157.455	-5.17104	-67.4116	150.139	-27.7146	-90.8304	157.67	-10.6895	-37.1769	153.049	-38.0079	-58.7316	126.483	-50.8435	-69.8613	157.546	-29.6396	-23.3388	147.687	-47.1696	-42.0738	114.233	-53.2763	-53.1872	149.822	-38.2757	-3.9196	137.041	-55.396	-22.0813	104.727	-56.1797	-31.2462	152.382	4.79804	16.269	143.564	23.7317	40.6274	144.573	37.647	6.24703	
316	2.63333	109.135	53.3687	-1.22337	90.074	42.5753	-25.0615	79.1393	35.3176	-47.4569	73.9273	13.9529	-66.2869	153.469	9.51061	-49.598	157.244	-7.282	-72.1771	150.159	-29.976	-87.3896	158.167	-13.034	-38.5724	155.38	-36.377	-56.8164	125.476	-54.2598	-67.69	154.857	-29.4118	-23.2567	145.753	-51.3556	-42.3052	112.1	-57.9655	-51.4249	147.2	-39.8671	-3.84949	137.646	-57.5833	-19.9722	104.092	-57.6071	-32.0573	150.02	4.68888	21.0859	144.884	23.0322	44.1124	144.757	36.9652	5.69565	
317	2.64167	108.43	52.1259	-1.64341	89.2828	45.772	-27.6974	79.9755	33.6475	-52.1251	79.3951	13.4704	-62.5277	153.6	13.2041	-47.7076	157.596	-1.86385	-69.1241	148.589	-21.2702	-87.5299	160.384	-11.8784	-38.9979	153.787	-34.4751	-58.5591	123.744	-48.2643	-70.0462	153.94	-21.5434	-22.5622	145.912	-47.4075	-45.6208	114.856	-51.7994	-56.2858	147.941	-35.2495	-3.17566	138.717	-52.3894	-24.9745	110.077	-50.1184	-37.3534	152.341	2.16956	18.8421	146.019	20.6253	43.3854	143.559	36.6237	7.60807	
318	2.65	98.5009	58.8082	3.40625	79.3161	48.164	-16.0662	73.2306	34.5462	-43.1778	73.6265	18.4145	-58.162	141.466	34.2751	-50.2802	143	19.322	-75.8203	134.128	-0.954468	-94.4935	155.234	14.1815	-44.8096	150.951	-2.19122	-68.7353	123.31	-25.9953	-79.1773	155.787	-0.926768	-28.8406	149.481	-20.119	-56.2879	120.655	-32.9981	-65.2052	154.921	-13.7544	-12.1009	148.077	-32.3361	-33.9136	118.323	-35.6762	-44.7836	150.19	24.4744	13.5506	144.609	35.2108	38.9328	137.235	50.6835	9.49324	
319	2.65833	75.9176	64.9818	18.6891	64.6693	43.3771	-3.69131	56.2344	30.7363	-27.5349	58.9284	16.7759	-46.8118	109.5	71.2682	-49.0093	109.826	62.6009	-76.0403	105.298	40.7615	-99.3423	130.029	65.3629	-50.5507	132.412	47.0993	-79.7023	123.094	19.355	-88.8101	146.155	52.607	-45.0134	150.106	31.9245	-66.4394	131.741	3.33977	-73.2025	158.174	38.3637	-23.6951	159.266	21.1026	-46.735	140.753	0.13346	-56.7997	141.296	67.9327	5.83917	139.183	73.1284	37.3411	113.265	82.5418	12.0147	
320	2.66667	69.8354	56.7407	20.7787	62.0255	34.4976	4.70026	55.9915	21.1412	-18.6665	59.9216	10.8454	-41.7225	90.9463	79.1234	-45.3762	86.8293	73.9917	-74.083	91.724	56.458	-96.0039	113.736	81.0971	-51.6134	118.759	69.4647	-77.836	119.73	37.3987	-91.9371	137.262	75.1034	-43.2561	142.761	59.4762	-69.2392	135.662	28.9842	-79.861	150.697	65.503	-26.3092	159.334	53.4995	-50.4682	151.94	24.4542	-65.4121	127.431	82.537	7.82	127.251	83.2817	38.5257	95.6779	86.2398	19.2037	
321	2.675	69.165	47.3321	27.5822	62.9239	26.5801	7.70387	55.749	12.8766	-17.4281	63.8344	5.12763	-42.3851	81.0128	75.8308	-40.8829	81.4876	71.8495	-72.7666	85.0287	57.4373	-93.7161	109.581	83.057	-48.7713	115.381	72.6796	-75.423	121.822	42.9779	-92.0373	124.725	80.1298	-40.364	134.895	69.8767	-69.3306	133.517	43.8004	-80.8834	147.444	74.7566	-29.3809	157.736	65.6534	-51.8267	154.129	39.3455	-69.2581	121.065	86.2632	10.1406	120.009	86.4211	38.1503	92.9655	81.6952	19.3038	
322	2.68333	69.0855	41.0311	26.178	67.7407	21.3544	6.33455	61.1579	7.24179	-18.0859	68.7666	2.41859	-38.5223	78.6052	72.0224	-37.815	74.7011	69.4885	-70.2042	84.9859	56.7024	-91.7859	99.8813	80.7241	-47.4901	107.066	72.2773	-76.2831	116.766	41.6518	-93.1752	121.805	82.5087	-41.3895	129.306	71.1551	-69.5743	131.773	43.1876	-81.9471	145.864	79.4475	-27.3361	150.715	72.1722	-50.421	155.001	44.0831	-69.9478	120.811	86.2689	9.99535	117.964	85.9175	37.8984	89.6992	77.2873	24.0076	
323	2.69167	72.3075	34.8398	28.5505	70.4817	15.0483	4.9471	67.3422	2.85522	-14.7257	72.4702	-3.94191	-41.337	74.0347	68.5683	-38.6661	74.0791	66.4495	-69.0606	82.2414	50.7099	-93.2928	98.2647	79.2241	-42.971	103.411	69.187	-76.3102	114.752	44.5665	-90.9037	117.839	81.9548	-36.854	122.042	72.2313	-68.1583	132.493	46.9003	-80.8784	140.759	80.7709	-26.5977	144.956	74.0839	-52.9418	151.302	49.0129	-71.6909	112.453	83.1559	11.2895	112.073	82.8465	38.7966	83.6331	72.8857	25.932	
324	2.7	73.6469	28.6643	25.9411	71.2861	7.75481	3.52544	72.0338	-2.87215	-18.112	76.5053	-8.56439	-42.6402	69.3218	62.6166	-37.2489	67.8615	60.7518	-69.1187	80.5506	47.4983	-94.1109	92.7787	75.8676	-44.0609	100.286	67.7487	-75.9408	113.12	45.346	-89.4706	112.607	81.6087	-37.8395	121.915	75.9581	-66.6076	128.319	47.9954	-81.2611	132.558	81.1129	-27.7219	142.391	75.793	-52.8221	147.708	54.5044	-68.6527	113.893	80.6668	13.525	110.725	79.7616	39.757	82.1156	66.4953	21.5364	
325	2.70833	75.1356	23.2546	30.5154	75.2836	2.35031	5.33652	74.3216	-9.40535	-17.7661	80.3516	-12.7847	-43.7036	65.8278	57.4381	-37.5291	67.4519	58.6868	-64.6077	78.1133	46.0945	-89.763	88.0452	72.5315	-43.8642	96.1875	66.3094	-73.8597	112.875	44.4471	-88.1083	106.741	78.2094	-36.4595	113.885	74.7967	-63.9821	128.846	47.2013	-80.0527	131.578	82.7836	-26.3618	137.486	77.7466	-52.9556	143.037	51.8612	-69.1924	107.984	78.5646	12.6083	108.937	77.0082	39.9703	78.7282	61.9385	23.3512	
326	2.71667	75.4414	17.1974	32.4229	80.2735	-1.08781	5.48924	79.4172	-11.1341	-20.142	85.9123	-13.2514	-41.4788	67.7079	56.715	-37.0694	65.8601	55.6849	-62.8431	73.8625	42.9168	-87.8253	86.826	71.0687	-38.7675	95.8656	66.6989	-72.9395	111.5	42.9973	-88.8397	105.221	77.7466	-32.9019	114.245	77.0205	-64.3236	126.19	50.5741	-79.6841	127.397	84.4633	-24.4815	134.123	79.1883	-52.3237	142.298	60.0859	-70.1643	103.573	75.1649	15.1853	106.626	76.0114	44.4851	81.1413	60.1413	28.9956	
